<svg width="200" height="28" viewBox="0 0 200 28" fill="none" xmlns="http://www.w3.org/2000/svg">
<path d="M6.84925 26.6446L8.4138 23.2473H19.0875L20.6868 26.6446H27.5361L15.263 0.644844H12.1687L0 26.6446H6.84925ZM13.768 11.7727L16.4104 17.4927H11.0909L13.768 11.7727Z" fill="black"/>
<path d="M51.9311 26.6446V0.644844H45.0818V12.9167L32.7393 0.644844H29.9579V26.6446H36.8071V14.3381L49.1149 26.6446H51.9311Z" fill="black"/>
<path d="M67.9574 12.6245V17.412H73.2319C72.1042 19.0442 70.1036 20.096 67.9574 20.096C64.6108 20.096 61.5189 17.3758 61.5189 13.64C61.5189 9.90424 64.5381 7.18402 67.9574 7.18402C69.8125 7.18402 71.3403 7.90941 72.5043 8.9975L77.5606 3.9923C75.087 1.56224 71.7041 0.0389137 67.9574 0.0389137C60.4276 0.0389137 54.3529 6.1322 54.3529 13.64C54.3529 21.1478 60.4276 27.2411 67.9574 27.2411C75.4871 27.2411 81.5982 21.1478 81.5982 13.64V12.6245H67.9574Z" fill="black"/>
<path d="M90.9041 0.644844H84.0201V16.9888C84.0201 22.7088 88.5746 27.2501 94.3113 27.2501C99.9785 27.2501 104.603 22.7088 104.603 16.9888V0.644844H97.7186V16.8848C97.7186 18.7568 96.1888 20.2821 94.3113 20.2821C92.4339 20.2821 90.9041 18.7568 90.9041 16.8848V0.644844Z" fill="black"/>
<path d="M128.215 7.43945H134.995V26.6793H141.844V7.43945H148.763V0.644844H128.215V7.43945Z" fill="black"/>
<path d="M120.217 8.88689C120.035 6.38818 117.853 4.93071 115.509 5.91354C114.054 6.50531 113.772 8.71888 115.012 9.68032C115.268 9.87041 115.595 10.044 115.994 10.201C116.393 10.358 116.867 10.4985 117.417 10.6225L119.314 11.0688C120.593 11.3664 121.688 11.7589 122.599 12.2466C123.51 12.7342 124.255 13.3086 124.835 13.9698C125.414 14.6227 125.84 15.3583 126.11 16.1765C128.336 22.7144 123.215 27.2453 117.146 27.2453C110.869 27.2453 107.187 23.5181 107.165 17.4163H113.126C113.164 18.1932 113.341 19.4515 113.657 19.9805C114.369 21.1711 115.735 21.5922 117.056 21.5922C117.725 21.5922 118.286 21.5012 118.738 21.3194C120.803 20.4877 120.479 17.8641 118.693 17.0443C118.188 16.8047 117.507 16.5815 116.649 16.3749L114.346 15.8294C112.298 15.3418 110.684 14.5277 109.502 13.3871C105.741 9.70699 107.909 3.09904 112.234 1.01658C113.65 0.338861 115.272 0 117.101 0C122.364 0 126.199 3.43185 126.223 8.88689H120.217Z" fill="black"/>
<path d="M151.487 26.6446H158.337V0.644844H151.487V26.6446Z" fill="black"/>
<path d="M167.911 26.6446L169.475 23.2473H180.149L181.748 26.6446H188.597L176.324 0.644844H173.23L161.061 26.6446H167.911ZM174.829 11.7727L177.472 17.4927H172.152L174.829 11.7727Z" fill="black"/>
<circle cx="195.661" cy="22.2393" r="4.33907" fill="black"/>
</svg>
