<?xml version="1.0" encoding="utf-8"?>
<!-- Generator: Adobe Illustrator 25.0.1, SVG Export Plug-In . SVG Version: 6.00 Build 0)  -->
<svg version="1.1" id="katman_1" xmlns="http://www.w3.org/2000/svg" xmlns:xlink="http://www.w3.org/1999/xlink" x="0px" y="0px"
	 viewBox="0 0 595.28 412.11" style="enable-background:new 0 0 595.28 412.11;" xml:space="preserve">
<style type="text/css">
	.st0{fill-rule:evenodd;clip-rule:evenodd;fill:#016CB3;}
</style>
<desc>Created with Sketch.</desc>
<g id="Navigation">
	<g id="GlobalNav_x2F_Guest_x2F_XS" transform="translate(-111.000000, -15.000000)">
		<g id="LOGO" transform="translate(111.000000, 15.000000)">
			<g id="Group-2" transform="translate(21.000000, 0.000000)">
				<path id="Fill-68" class="st0" d="M232.24,191.71c-8.56,0-11.1-4.22-11.1-11.21c0-6.87,2.54-11.07,11.1-11.07
					c8.51,0,11.07,4.2,11.07,11.07C243.31,187.49,240.74,191.71,232.24,191.71 M232.24,162.45c-12.79,0-21.32,5.57-21.32,18.04
					c0,12.62,8.53,18.12,21.32,18.12c12.77,0,21.27-5.5,21.27-18.12C253.5,168.03,245.01,162.45,232.24,162.45"/>
				<path id="Fill-69" class="st0" d="M335.75,184.62c0,6.45-6.23,7.02-11.94,7.02c-1.97,0-5.08-0.42-5.08-4.22
					c0-2.51,3.45-4.19,7.64-4.19h9.38V184.62z M345.95,173.56c0-7-7.56-11.19-18.73-11.19c-5.75,0-12.82,2.23-15.25,3.06
					c-0.23,1.46-0.96,6.05-1.1,7.02c2.22-0.49,10.93-3.09,16.35-3.09c5.59,0,8.53,1.89,8.53,4.63v2.95c0,0-6.91-0.67-9.38-0.67
					c-11.14,0-17.89,3.95-17.89,11.15c0,9.12,10.15,11.12,15.33,11.12c6.99,0,10.64-1.85,12.36-3.39l0.59,2.73H347
					c-0.12-0.54-1.05-2.98-1.05-6.23V173.56z"/>
				<path id="Fill-70" class="st0" d="M182.41,150.78c12.01-0.02,19.47,3.75,23.61,9.66l-10.73,4.13c-2.31-3.26-6.19-5.4-12.74-5.43
					h-0.27c-6.41,0.03-10.24,2.04-12.59,5.16c-2.05,2.71-3.17,6.2-3.17,10.16v0.65h-0.01c0.05,3.78,1.18,7.43,3.17,10.06
					c2.34,3.1,6.18,5.15,12.59,5.16h0.27c6.43-0.01,10.29-2.11,12.63-5.26l10.84,4.12c-4.16,5.84-11.7,9.41-23.55,9.41h-0.06
					c-10.53,0-17.6-2.76-21.93-7.51c-3.94-4.27-5.95-9.94-5.94-16.22v-0.42c-0.01-6.14,2-11.83,5.93-16.07
					C164.8,153.66,171.87,150.77,182.41,150.78"/>
				<path id="Fill-73" class="st0" d="M282.47,191.67c-8.68,0-11.07-4.92-11.07-11.19c0.18-6.67,2.39-11.08,11.07-11.08
					c7.85,0,9.38,4.9,9.38,11.08C291.85,186.74,290.32,191.67,282.47,191.67 M282.47,162.4c-6.38,0-11.32,3.72-11.32,3.72
					s-0.55-2.06-0.77-3.01h-10.29c0.37,1.26,1.1,3.68,1.1,6.28v39.55h10.22v-13.78c2.06,1.49,5.87,3.43,11.07,3.43
					c17.14,0,19.62-8.12,19.62-18.12C302.08,170.57,299.61,162.4,282.47,162.4"/>
			</g>
			<g id="Group-3" transform="translate(0.000000, 14.000000)">
				<path id="Fill-65" class="st0" d="M118.2,226.67l-7.12-15.62l-7.17,15.62H118.2z M104.46,199.98h13.25
					c2.3,4.96,21.38,45.73,21.38,45.73h-12.11L121.99,235h-21.99l-4.85,10.72H83L104.46,199.98z"/>
				<path id="Fill-66" class="st0" d="M261.02,210.22c-7.68,0-11.41,4-11.41,4l-0.63-3.31h-10.36c0.41,1.24,1.1,3.54,1.1,5.58v29.23
					h10.25v-20.27c0-5.43,3.38-8.25,11.05-8.25c4.22,0,6.8,1.38,6.8,8.25v20.27h10.2v-20.27
					C278.03,215.11,274.66,210.22,261.02,210.22"/>
				<path id="Fill-67" class="st0" d="M296.35,224.81c0.6-4.29,2.56-7.58,10.64-7.58c5.93,0,8.06,3.78,8.4,7.58H296.35z
					 M306.99,210.34c-17.4,0-21.27,8.08-21.27,17.98c0,10.01,3.79,18.12,22.12,18.12c6.71,0,12.98-1.24,14.4-1.54
					c0.27-1.77,0.87-5.62,1.06-6.94c-0.98,0.1-8.92,1.55-15.47,1.55c-8.52,0-10.8-3.22-11.5-7.69h29.46v-3.5
					C325.81,215.85,319.08,210.34,306.99,210.34z"/>
				<path id="Fill-71" class="st0" d="M209.05,240.19V200h-10.23v40.19c0,2.44,0.87,4.93,1.09,5.53h10.24
					C210,245.13,209.05,242.75,209.05,240.19"/>
				<path id="Fill-72" class="st0" d="M174.88,225.38c0.04-5.35,4.03-8.18,11.08-8.18c1.17,0,5.78,0.58,7.76,0.84
					c-0.09-0.89-0.8-5.21-1.1-6.99c-1.46-0.27-4.73-0.83-6.66-0.83c-6,0-9.37,2.18-11.23,3.84l-0.86-3.14h-10.29
					c0.19,0.7,1.06,3.08,1.08,5.49v29.31h10.23V225.38z"/>
				<path id="Fill-74" class="st0" d="M362.67,212.09v7.87c-2-1.07-4.09-1.89-6.25-2.43c-2.19-0.55-4.37-0.82-6.54-0.82
					c-2.43,0-4.26,0.3-5.51,0.89c-1.22,0.57-1.86,1.46-1.86,2.61c0,1.65,2.67,2.97,7.95,4l0.4,0.08l3.14,0.6
					c3.99,0.78,6.89,2.04,8.73,3.77c1.86,1.76,2.76,4.1,2.76,7.04c0,3.58-1.4,6.27-4.22,8.03c-2.79,1.78-7.04,2.66-12.68,2.66
					c-2.5,0-5.08-0.17-7.71-0.51c-2.61-0.38-5.28-0.89-7.97-1.62v-7.94c2.4,1.16,4.85,2.01,7.34,2.62c2.48,0.62,4.89,0.92,7.23,0.92
					c2.54,0,4.48-0.33,5.8-0.94c1.3-0.63,1.98-1.52,1.98-2.71c0-1.14-0.48-2.02-1.39-2.66c-0.93-0.63-3.17-1.25-6.64-1.96
					l-3.02-0.57c-4.15-0.74-7.19-1.98-9.08-3.64c-1.9-1.68-2.86-3.88-2.86-6.67c0-3.34,1.44-5.91,4.34-7.73
					c2.91-1.88,6.98-2.79,12.23-2.79c2.35,0,4.7,0.16,7.08,0.46C358.2,210.97,360.47,211.45,362.67,212.09"/>
				<path id="Fill-75" class="st0" d="M224.38,208.22c2.21,0,3.73-0.28,4.55-0.88c0.81-0.62,1.22-1.68,1.22-3.28
					c0-1.51-0.4-2.58-1.17-3.18c-0.81-0.59-2.3-0.9-4.52-0.9c-2.25,0-3.76,0.32-4.58,0.93c-0.81,0.62-1.19,1.72-1.19,3.3
					c0,1.53,0.37,2.56,1.14,3.14C220.63,207.94,222.14,208.22,224.38,208.22 M229.5,240.19V210.9h-10.21v29.29
					c0,2.58,0.96,5.16,1.1,5.53h10.2C230.42,245.08,229.5,242.68,229.5,240.19"/>
				<path id="Fill-76" class="st0" d="M149.28,208.22c2.22,0,3.72-0.28,4.55-0.88c0.8-0.62,1.24-1.68,1.24-3.28
					c0-1.51-0.43-2.58-1.19-3.18c-0.8-0.59-2.3-0.9-4.5-0.9c-2.25,0-3.77,0.32-4.58,0.93c-0.8,0.62-1.2,1.72-1.2,3.3
					c0,1.53,0.39,2.56,1.16,3.14C145.53,207.94,147.04,208.22,149.28,208.22 M154.42,240.19V210.9H144.2v29.29
					c0,2.58,0.98,5.16,1.12,5.53h10.19C155.32,245.08,154.42,242.68,154.42,240.19"/>
			</g>
			<path id="Fill-77" class="st0" d="M505.87,252.59h-1.04v-1.66h1.66c0.71,0,1.58,0.12,1.58,0.8
				C508.08,252.75,506.67,252.59,505.87,252.59 M508.97,251.73c0-1.38-1.13-1.69-2.28-1.69h-2.75v6.44h0.89v-2.94h1.04l1.94,2.94
				h1.08l-1.94-2.94C508.09,253.5,508.97,253.02,508.97,251.73"/>
			<path id="Fill-78" class="st0" d="M506.09,258.22c-2.65,0-4.99-2.15-4.99-4.89c0-2.79,2.34-4.96,4.99-4.96
				c2.68,0,5.01,2.18,5.01,4.96C511.09,256.07,508.77,258.22,506.09,258.22 M506.09,247.55c-3.26,0-5.89,2.47-5.89,5.77
				c0,3.26,2.63,5.81,5.89,5.81c3.29,0,5.91-2.55,5.91-5.81C512,250.02,509.38,247.55,506.09,247.55"/>
			<path id="Fill-79" class="st0" d="M383.12,200.41v3.3c11.26-4.36,22.63-7.01,33.53-8.58
				C406.6,194.87,394.79,196.56,383.12,200.41"/>
			<path id="Fill-80" class="st0" d="M444.7,203.85c-2.66-1.91-5.44-3.65-9.04-5.12c1.2-0.08,2.45-0.27,3.86-0.34
				c2.25,1.48,5.27,3.82,7.05,6.06L444.7,203.85z M419.95,190.12c-2.77-1.03-6.04-1.73-9.29-2.18c1.41-0.31,2.79-0.58,4.36-0.77
				c2.28,0.62,5.29,1.69,8.17,3.45L419.95,190.12z M383.12,183.03c3.03-0.09,6.5,0.92,10.26,1.41l-6.6,0.84
				c-1.13,0.05-2.39,0.15-3.66,0.27v1.48c4.78-0.89,10.02-1.46,14.87-1.51c42.51-10.08,77.72-0.59,77.72-0.59
				c-7.56-1.71-49.65-7.42-92.59,9.34v2.54c6.37-2.14,13.11-3.8,19.55-4.56c9.55-1.17,18.43-0.65,25.91,1.45
				c31.42-2.24,54.19,4.46,54.19,4.46c-8.55-1.39-54.42-7.65-99.65,12.92v2.04c12.52-5.95,25.66-9.38,36.85-10.12
				c11.35-0.61,21.5,1,29.13,5.51c18-0.28,31.71,2.04,39.38,3.89v-57.74H383.12V183.03z"/>
			<path id="Fill-81" class="st0" d="M383.12,217.36v6.38c18.51-8.95,37.37-13.2,53.81-14.6
				C421.92,206.49,402.67,209.21,383.12,217.36"/>
			<path id="Fill-82" class="st0" d="M464,224.96c-3.19-4.68-7.23-8.22-12.84-10.93c1.68-0.2,3.79-0.26,5.36-0.33
				c0.56,0.41,1.1,0.92,1.6,1.55c0.19,0.28,6.44,6.4,8.54,12.63L464,224.96z M383.12,232.15v2.65c1.27-0.72,2.55-1.41,3.74-2.05
				c9.47-5.06,18.93-8.59,28.38-10.73c8.95-2.12,17.72-2.87,25.73-2.16c15.15,1.35,26.03,7.93,31.27,19.29
				c0.05,0.08,3.79,8.43,4.15,16.3l-1.82-4.5c-0.48-2.25-1.1-4.56-2.28-6.63c-3.88-7.5-11.44-12.88-21.65-16.04
				c-9.27-2.91-21.43-3.04-34.06-0.58c-11.2,2.11-22.61,6.32-33.46,11.66v19.78h1.05c6.51-4.81,13.54-8.34,20.84-11.22
				c19.14-8.19,37.76-10.66,51.73-6.98c10.26,2.92,16.96,8.94,19.69,18.2h12.05v-45.87C471.25,211.32,425.3,208.16,383.12,232.15z"
				/>
			<path id="Fill-83" class="st0" d="M454.72,248.29c-9.14-2.41-19.66-2.55-31.32-0.41c-10.4,1.89-21.31,5.4-31.8,11.25h80.02
				C467.9,253.73,461.97,250.27,454.72,248.29"/>
		</g>
	</g>
</g>
</svg>
